<?xml version="1.0" encoding="UTF-8"?>
<svg id="Layer_2" data-name="Layer 2" xmlns="http://www.w3.org/2000/svg" viewBox="0 0 103.36 77.09">
  <g id="Layer_1-2" data-name="Layer 1">
    <path d="M49.65,74.33l-4.88-4.1c-1.47-1.24-2.65-2.64-3.57-4.44-2.16,5.43-7.45,8.95-13.25,6.77-2.79-1.05-5.12-2.95-7.19-5.18,3.87-.54,7.11-1.96,9.94-4.9-7.94,3.16-16.7,2.06-23.53-3.1-3.5-2.64-5.97-6.37-7.15-10.76,2.51,1.72,5.31,1.49,8.04.8l4.66-1.18c-5.89-2.57-7.59-11.01-4.57-16.35,1.12,2.51,2.68,3.79,5.21,4.52-1.65-2.55-2.32-5.26-2.21-8.25.07-1.93.28-3.75.86-5.58.74-2.37,1.36-4.68,1.99-7.16,2,2.56,6.02,5.05,9.18,5.29.51-3.52,1.65-6.85,3.3-10.03.78-1.5,1.41-2.92,2.11-4.58.95,1.59,2.21,2.76,3.61,3.94,2.27,1.93,4.46,3.77,6.94,5.57,2.8-4.31,6.27-5.72,9.5-9.21,1.69-1.79,2.64-3.82,3.13-6.42.73,2.02,1.58,3.74,2.97,5.32,1.45,1.62,2.96,3.05,4.57,4.52,1.92,1.74,3.6,3.53,5.07,5.76,2.77-2.03,5.29-4.18,7.86-6.4,1.03-.89,1.85-1.85,2.6-3.04.68,1.5,1.32,2.95,2.09,4.43,1.66,3.18,2.84,6.51,3.32,10.13,2.97-.11,7.42-2.89,9.19-5.25l1.91,6.89c.85,2.78,1.14,5.59.82,8.47-.29,2.15-1.06,4.07-2.2,5.69,2.54-.77,4.4-2.26,5.3-4.65,2.97,5.26,1.46,13.58-4.42,16.36l4.26,1.13c1.82.48,3.63.72,5.53.44.96-.14,1.81-.68,2.76-1.16-1.22,4.7-3.91,8.59-7.69,11.36-6.55,4.82-14.81,5.89-22.57,2.87,2.55,2.63,5.83,3.96,9.46,4.5-1.8,2.09-3.98,3.83-6.54,4.94-5.82,2.54-11.37-.59-13.7-6.22-1.7,3.75-5.14,6.09-8.34,8.41-.99.72-1.75,1.56-2.37,2.58-.5-1.07-1.06-2-1.96-2.76ZM51.61,10.24c.84,3.54,2.14,6.47,4.23,9.23l4.82,6.4c1.63-.86,3.19-1.77,4.76-2.83.27-3.38-2.29-6.65-4.57-8.92-3.21-3.19-7.43-6.72-9.16-10.88-.94,1.44-1.87,2.71-3,3.95l-7.44,8.19c-2.08,2.58-3,4.15-3.41,7.58,1.75,1.19,3.43,2.15,5.33,3.14l4.52-5.97c2.22-2.93,3.34-6.23,3.91-9.9ZM71.81,25.54l.45,7.34c2.3-.99,4.33-2.11,6.38-3.53.21-1.89.11-3.64,0-5.56-.39-3.67-1.15-7.16-2.08-10.72-.5-1.94-.99-3.78-1.8-5.62-.92,1.52-1.71,2.77-2.78,4.03-2.09,2.04-4.48,3.64-7.39,4.62,1.19,1.96,1.63,4.08,1.47,6.38,1.74-1.13,2.7-2.62,3.86-4.32,1.01,2.39,1.55,4.83,1.9,7.38ZM33.64,18.28c1.09,1.65,2.12,3.1,3.72,4.25-.33-2.39.31-4.45,1.41-6.44-2.61-.81-4.7-2.26-6.72-3.94-1.38-1.38-2.34-2.87-3.43-4.68-.84,1.92-1.31,3.69-1.81,5.58-.99,3.69-1.69,7.33-2.16,11.14-.05,1.74-.02,3.36.1,5.17,2.05,1.41,4.14,2.59,6.41,3.45.31-5.53.47-9.47,2.48-14.54ZM51.69,55.75c3.24-.83,5.5-3.33,7.21-5.91,1.97-2.97,3.17-6.27,3.62-9.83.57-4.43-.64-8.7-2.99-12.46l-4.38-6.22c-1.54-2.19-2.69-4.48-3.54-6.99-1.04,2.5-2.3,4.55-3.78,6.61-1.46,1.99-2.84,3.86-4.18,5.93-2.43,3.91-3.52,8.29-2.91,12.91.73,5.49,3.56,11.68,8.2,14.84.68.47,1.84,1.36,2.74,1.13ZM17.92,22.2c1.55,2.54,3.38,4.67,5.91,6.42-.6-2.44-.96-4.6-.72-7.17-3.46.46-6.89-.94-8.89-3.96-1.74,3.27-1.46,11.49-.69,14.91.4,1.77.85,3.73,2.12,5.07.73.76,1.93,1.15,2.75,1.9-1.39-4.66-3.38-13.01-.47-17.16ZM84.97,39.27l2.83-1.75c2.51-3.63,2.76-9.2,2.58-13.56-.05-2.23-.27-4.39-1.21-6.48-2,2.96-5.4,4.49-8.93,3.92.24,2.53-.01,4.82-.79,7.29,2.45-1.74,4.38-3.87,6.01-6.46,2.83,3.99.92,12.7-.49,17.04ZM57.54,52.69c2.61-1.12,4.48-2.8,6.45-4.49,3.28-2.95,5.55-6.59,6.81-10.82,1.71-5.73.65-10.21-1.4-15.65-2.7,2.57-5.08,3.49-8.51,4.55,3.94,5.38,4.72,12.07,2.32,18.13-1.27,3.21-3.28,5.73-5.67,8.26ZM47.33,53.9c-2.85-2.43-5.22-5.16-6.73-8.57-1.9-4.26-2.2-8.92-.68-13.33.75-2,1.74-3.74,3.02-5.53-3.31-.85-6.3-2.16-8.79-4.66l-1.49,4.47c-2.45,7.34.35,15.96,5.83,21.32,2.62,2.56,5.53,4.65,8.84,6.3ZM46,54.69c-9.39-3.78-15.14-10.9-14.8-21.56-4.82-.7-10.06-3.68-13.13-7.74-2.74,7.4,1.57,16.76,7.42,21.37,3.34,2.53,14,7.82,17.66,7.88l2.85.05ZM60.98,54.62c3.4.09,12.72-5.23,15.85-7.19,2.17-1.36,3.82-3.19,5.28-5.29,3.29-4.76,5.25-11.04,3.22-16.77-3.28,4.19-7.93,6.81-13.09,7.77-.07,1.9-.15,3.72-.56,5.66-1.19,5.68-4.86,10.38-9.77,13.41l-4.51,2.33,3.58.09ZM23.33,47.31c-1.66-1.84-2.94-3.49-3.88-5.57-1.31-.97-2.66-1.75-4.13-2.47-2.81-1.25-5.02-3.19-7.04-5.68-.74,4.71,1.57,12.4,6.02,14.32,3.06-.71,5.93-.95,9.03-.61ZM79.91,47.35c3.15-.44,6.05-.14,9.14.56,4.44-1.87,6.8-9.64,6.04-14.31-2.06,2.51-4.31,4.52-7.21,5.73-1.36.72-2.61,1.45-3.88,2.33-1.05,2.17-2.32,4.03-4.09,5.69ZM31.97,61.44c2.84-2.8,4.47-4.68,8.33-6.21-5.69-1.02-10.82-3.28-15.41-6.66-2.94-.61-6.67.19-9.65.83-4.4.95-9.86,2.06-14.15.57.61,1.57,1.43,2.89,2.5,4.1,6.86,7.76,18.64,10.31,28.38,7.38ZM99.49,54.46c1.21-1.36,2.15-2.84,2.86-4.55-4.05,1.53-9.43.49-13.52-.38-3.18-.7-7.02-1.53-10.22-1.01-4.74,3.41-9.66,5.76-15.56,6.79,2.31.89,4.2,2.28,5.97,3.97l2.65,2.53c9.67,2.93,21.02.29,27.82-7.34ZM79.46,68.16c-1.53-.74-2.89-1.51-4.17-2.57l-3.71-3.05c-2.6-2.19-5.38-4.01-8.49-5.41s-6.95-1.64-10.32-1.11c3.36.82,6.91,1.62,9.01,4.4,1.01,1.34,1.28,2.94.82,4.6,1.17,2.16,2.87,4.01,5.05,5.19,4.01,2.18,8.35.64,11.81-2.05ZM36.44,69.81c1.95-1.3,3.4-2.99,4.46-5.01-.92-3.37,1.3-5.6,4.1-7.03,1.72-.75,3.4-1.2,5.19-1.63l-2.71-.23c-6.83-.52-12.75,3.86-17.59,8.16-1.85,1.64-3.71,3.05-5.98,4.1,3.71,2.85,8.22,4.4,12.52,1.64ZM54.02,72.63l3.77-3.38c1.83-1.98,4.43-5.57,2.32-8.24-1.99-2.52-5.16-4.74-8.59-4.68s-6.25,2.21-8.25,4.57c-2.28,2.67.06,6.67,2.01,8.81.95,1.04,2.01,1.88,3.12,2.77l3.23,2.6c.72-.87,1.51-1.67,2.39-2.45Z"/>
  </g>
</svg>